Coordinates
version=1
nRows=20
nColumns=38
inDegrees=no

Units are S.I. units (second, meters, Newtons, ...)
If the header above contains a line with 'inDegrees', this indicates whether rotational values are in degrees (yes) or radians (no).

endheader
time	pelvis_tilt	pelvis_list	pelvis_rotation	pelvis_tx	pelvis_ty	pelvis_tz	hip_flexion_r	hip_adduction_r	hip_rotation_r	knee_angle_r	ankle_angle_r	subtalar_angle_r	mtp_angle_r	hip_flexion_l	hip_adduction_l	hip_rotation_l	knee_angle_l	ankle_angle_l	subtalar_angle_l	mtp_angle_l	lumbar_extension	lumbar_bending	lumbar_rotation	arm_flex_r	arm_add_r	arm_rot_r	elbow_flex_r	pro_sup_r	wrist_flex_r	wrist_dev_r	arm_flex_l	arm_add_l	arm_rot_l	elbow_flex_l	pro_sup_l	wrist_flex_l	wrist_dev_l
0.66	-0.117387	1.35029	-1.35992	0.582364	0.705552	0.944198	-0.438916	0.124069	-0.00773056	0.134739	-0.191643	0	0	0.188041	-0.0722121	-0.0658516	0.148291	-0.345955	0	0	-0.464076	0.106547	-0.0895396	0.160515	-0.573708	1.26447	0.797327	0.26878	0	0	-0.24599	-0.227403	-0.107959	0.722166	1.41174	0	0
0.67	-0.124744	1.35435	-1.34988	0.584192	0.696495	0.942454	-0.444388	0.124831	-0.0102369	0.136855	-0.187407	0	0	0.178334	-0.0680517	-0.0755036	0.0790189	-0.359412	0	0	-0.459215	0.108541	-0.0906586	0.157654	-0.575438	1.26064	0.797664	0.268779	0	0	-0.245007	-0.22742	-0.103015	0.720447	1.40776	0	0
0.68	-0.130916	1.35819	-1.34103	0.586076	0.68742	0.940812	-0.448417	0.124974	-0.0136715	0.142647	-0.18263	0	0	0.170309	-0.0626622	-0.0845104	0.0204163	-0.37015	0	0	-0.454709	0.110189	-0.0915424	0.154637	-0.576966	1.25684	0.797719	0.269761	0	0	-0.243707	-0.22787	-0.0969455	0.718172	1.40471	0	0
0.69	-0.141684	1.3626	-1.32742	0.587933	0.678347	0.939111	-0.450942	0.125924	-0.0145731	0.149061	-0.179578	0	0	0.168324	-0.0586212	-0.0902809	0	-0.374012	0	0	-0.44996	0.112385	-0.0926159	0.152413	-0.578321	1.25488	0.797873	0.271143	0	0	-0.242997	-0.227682	-0.093362	0.717189	1.40309	0	0
0.7	-0.15613	1.36751	-1.31144	0.589679	0.669033	0.937412	-0.451009	0.126605	-0.0152521	0.160588	-0.174124	0	0	0.170127	-0.057256	-0.0936988	0	-0.377843	0	0	-0.443421	0.114651	-0.0921068	0.14821	-0.579784	1.25056	0.797757	0.273313	0	0	-0.241696	-0.227227	-0.0885444	0.71409	1.40098	0	0
0.71	-0.172053	1.37096	-1.29547	0.591323	0.659541	0.935871	-0.452306	0.127025	-0.0141454	0.17253	-0.170024	0	0	0.172317	-0.058644	-0.0955181	0	-0.380375	0	0	-0.438321	0.116663	-0.0903748	0.143539	-0.581581	1.24451	0.798121	0.274458	0	0	-0.241372	-0.226414	-0.0852283	0.712202	1.39975	0	0
0.72	-0.184341	1.37246	-1.28451	0.592879	0.649858	0.934604	-0.455307	0.126355	-0.0132193	0.18592	-0.166954	0	0	0.173837	-0.0607193	-0.0965325	0	-0.384226	0	0	-0.435297	0.117749	-0.0872496	0.138447	-0.583748	1.23797	0.799313	0.276233	0	0	-0.241376	-0.225489	-0.0825013	0.710844	1.39957	0	0
0.73	-0.189012	1.37324	-1.28162	0.59443	0.640019	0.933606	-0.45936	0.124001	-0.0128	0.199149	-0.165707	0	0	0.175856	-0.0609713	-0.0965624	0	-0.387398	0	0	-0.433439	0.117299	-0.084348	0.133934	-0.585573	1.2332	0.800438	0.278324	0	0	-0.242127	-0.224501	-0.081082	0.710531	1.39972	0	0
0.74	-0.181588	1.3795	-1.28693	0.596378	0.630668	0.93278	-0.454289	0.118659	-0.0194362	0.220798	-0.162015	0	0	0.189906	-0.0555861	-0.089318	0.0309176	-0.385943	0	0	-0.427302	0.114342	-0.0824631	0.125091	-0.583637	1.22056	0.79599	0.285993	0	0	-0.236815	-0.224495	-0.0753789	0.703754	1.40072	0	0
0.75	-0.171392	1.38055	-1.29864	0.598141	0.620487	0.932179	-0.457815	0.113044	-0.0223865	0.236502	-0.162728	0	0	0.193355	-0.0506932	-0.0854435	0.0707294	-0.374838	0	0	-0.425203	0.111053	-0.0795497	0.117383	-0.5841	1.211	0.795311	0.291292	0	0	-0.236466	-0.223727	-0.0725932	0.701274	1.40196	0	0
0.76	-0.15066	1.37947	-1.32191	0.599939	0.609947	0.931956	-0.46482	0.105534	-0.0242676	0.250536	-0.165216	0	0	0.189573	-0.0427448	-0.0836652	0.09644	-0.367735	0	0	-0.425004	0.10606	-0.0771128	0.110701	-0.584392	1.20375	0.794136	0.293989	0	0	-0.236885	-0.222259	-0.0717318	0.698039	1.40346	0	0
0.77	-0.124002	1.3785	-1.35032	0.601916	0.599108	0.931947	-0.471316	0.0969134	-0.0280244	0.266275	-0.169685	0	0	0.183346	-0.0320186	-0.0805784	0.111191	-0.365804	0	0	-0.424443	0.100195	-0.0749974	0.102741	-0.584097	1.19576	0.792119	0.297174	0	0	-0.23687	-0.22043	-0.0715118	0.693593	1.40551	0	0
0.78	-0.0935275	1.37835	-1.38032	0.604136	0.588085	0.932101	-0.475692	0.0880468	-0.0350486	0.285088	-0.177483	0	0	0.177056	-0.0188429	-0.0740705	0.121739	-0.373978	0	0	-0.422501	0.0940076	-0.0736589	0.0918639	-0.582445	1.18354	0.788484	0.303342	0	0	-0.235772	-0.218563	-0.071158	0.687858	1.40905	0	0
0.79	-0.0694771	1.37773	-1.4049	0.606193	0.577036	0.932412	-0.479194	0.0802827	-0.0366345	0.305119	-0.186791	0	0	0.168709	-0.00992397	-0.0684271	0.126104	-0.394434	0	0	-0.420979	0.0886548	-0.0714388	0.0811503	-0.581051	1.17064	0.785636	0.311125	0	0	-0.235243	-0.216683	-0.0713919	0.683226	1.41307	0	0
0.8	-0.0544836	1.37744	-1.4222	0.608153	0.565765	0.932716	-0.480652	0.0732085	-0.0336638	0.327368	-0.197167	0	0	0.158958	-0.00561687	-0.0647242	0.124695	-0.421282	0	0	-0.418612	0.084554	-0.0676966	0.0703618	-0.58082	1.15766	0.784153	0.31913	0	0	-0.235511	-0.214058	-0.0723499	0.678855	1.41846	0	0
0.81	-0.0518951	1.37828	-1.42829	0.609909	0.554119	0.932832	-0.47866	0.0677979	-0.0284604	0.353436	-0.209872	0	0	0.149191	-0.00890195	-0.0613845	0.116098	-0.459869	0	0	-0.414088	0.0822066	-0.0622444	0.0572234	-0.581067	1.14135	0.783704	0.329344	0	0	-0.237202	-0.210654	-0.075354	0.675245	1.42622	0	0
0.82	-0.0468811	1.38137	-1.43473	0.612303	0.542409	0.932785	-0.471436	0.0608156	-0.0286723	0.385142	-0.223242	0	0	0.145924	-0.00517428	-0.0511876	0.124333	-0.48159	0	0	-0.406696	0.0804813	-0.0590156	0.0431801	-0.582371	1.12438	0.784125	0.339254	0	0	-0.239508	-0.20621	-0.0795433	0.671395	1.43434	0	0
0.83	-0.0418708	1.38529	-1.43976	0.614832	0.53061	0.932783	-0.46083	0.0536502	-0.0312181	0.421159	-0.238856	0	0	0.144875	-0.0013031	-0.0359185	0.137964	-0.492861	0	0	-0.398067	0.0790125	-0.0570979	0.0290518	-0.583042	1.10811	0.783847	0.349493	0	0	-0.242348	-0.201972	-0.0840099	0.667596	1.44244	0	0
0.84	-0.0332393	1.38834	-1.44733	0.617418	0.518831	0.93307	-0.449351	0.045773	-0.0342623	0.459014	-0.259341	0	0	0.142985	0.00315375	-0.0199702	0.154375	-0.497167	0	0	-0.390417	0.077255	-0.0563649	0.0165451	-0.582954	1.09487	0.782452	0.361306	0	0	-0.244957	-0.198365	-0.0880851	0.663762	1.45057	0	0
0.85	-0.0185672	1.39039	-1.45997	0.620062	0.507162	0.933645	-0.436655	0.0364157	-0.0384824	0.499639	-0.285902	0	0	0.139485	0.00881605	-0.00708579	0.171057	-0.499221	0	0	-0.384275	0.0748269	-0.0571341	0.00588121	-0.582186	1.08447	0.780226	0.373855	0	0	-0.247512	-0.195194	-0.092475	0.660756	1.45721	0	0
